# xmcd
# 
# Track frame offsets:
#     150
#     16552
#     27212
#     45680
#     55507
#     69255
#     81715
#     91145
#     103677
#     119710
#     132592
#     145462
#     161057
# 
# Disc length: 2331
# 
# Revision: 2
# Processed by: cddbd v1.5.2PL0 Copyright (c) Steve Scherf et al.
# Submitted via: fre:ac v1.0.31
# 
DISCID=b009190d
DTITLE=Various Artist - 1000 Meilen
DYEAR=1990
DGENRE=Country
TTITLE0=Boss Band - Oh Marie
TTITLE1=George and Lucky Riders - I´ve Been Honky Tonkin´ Too Long
TTITLE2=John Brack and Nina Nova - The Hard Times
TTITLE3=Gunsmoke - Redneck Saturday Night
TTITLE4=Michael Dee - Blaue Augen, Blondes Haar
TTITLE5=Buffalo Bernie - Einmal Im Leben Nach Nashville
TTITLE6=Nina Nova and Band - I´m Your Hitparade
TTITLE7=Gunsmoke - Steam On Wheels
TTITLE8=Michael Dee - Ich steh´auf Countrymusic
TTITLE9=Nina Nova and Band - Behind The Wheels
TTITLE10=Buffalo Bernie - Hey Trucker, Du Nennst Mich Bulle
TTITLE11=Boss Band - Western Willy
TTITLE12=George and Lucky Riders - So Long
EXTD=
EXTT0=
EXTT1=
EXTT2=
EXTT3=
EXTT4=
EXTT5=
EXTT6=
EXTT7=
EXTT8=
EXTT9=
EXTT10=
EXTT11=
EXTT12=
PLAYORDER=
